<svg id="blackhole" xmlns="http://www.w3.org/2000/svg" viewBox="0 0 178.36 211.39">
  <title>blackhole</title>
  <path d="M92.25,22.17a112.07,112.07,0,0,1,64.66,15.56A120.17,120.17,0,0,1,168.2,45.5,113.53,113.53,0,0,1,187.77,64.9a114.75,114.75,0,0,1,14.5,23.69,117.51,117.51,0,0,1,8.47,26.66,119.09,119.09,0,0,1,1.76,14l.21,3.52c0,1.18,0,2.38,0,3.57v1.79l-.07,1.79c-.06,1.19-.07,2.39-.18,3.58a102.67,102.67,0,0,1-2.11,14.22,99,99,0,0,1-4.25,13.78,102.08,102.08,0,0,1-6.28,13,99.83,99.83,0,0,1-8.15,12,93.77,93.77,0,0,1-9.87,10.64,95.24,95.24,0,0,1-11.36,9.09,93.66,93.66,0,0,1-12.61,7.34c-2.18,1.1-4.43,2-6.68,3s-4.57,1.73-6.92,2.4-4.7,1.32-7.07,1.92-4.78,1-7.2,1.35-4.85.62-7.28.85c-1.22.11-2.44.13-3.66.2l-1.83.08h-1.87A79.41,79.41,0,0,1,86,227.73a81.28,81.28,0,0,1-43.34-40.06,80.73,80.73,0,0,1-7.94-29c-.14-1.25-.17-2.51-.21-3.77L34.4,153l0-1.94a67,67,0,0,1,.58-7.76,66.15,66.15,0,0,1,3.86-15.08A67.33,67.33,0,0,1,56.23,102.7a69.07,69.07,0,0,1,12.6-9.06,67.13,67.13,0,0,1,14.34-5.91,65.54,65.54,0,0,1,15.28-2.46,72.88,72.88,0,0,1,7.91.16c1.33.13,2.65.36,4,.55.66.1,1.32.2,2,.32l1.95.49a55.14,55.14,0,0,1,27.23,15.85,54.31,54.31,0,0,1,14,28l.58,3.91.2,3.94c0,.66.09,1.3.05,2l-.1,2-.12,2c-.07.68-.19,1.35-.29,2a44.65,44.65,0,0,1-45.3,38.33,37.1,37.1,0,0,1-16-4.19,36.29,36.29,0,0,1-18.83-25.51,36.89,36.89,0,0,1-.52-8.12,29.11,29.11,0,0,1,1.61-8.23,29.81,29.81,0,0,1,3.83-7.41,30.28,30.28,0,0,1,5.71-6,31.46,31.46,0,0,1,7.11-4.14,30.73,30.73,0,0,1,7.94-1.95c.67-.1,1.35-.08,2-.12a16.55,16.55,0,0,1,2.06,0c.7.06,1.41.06,2.11.18s1.4.22,2.09.36a23.43,23.43,0,0,1,7.72,3.27c9.39,6,13.83,18.93,8.14,29.12a18.5,18.5,0,0,1-17.17,9.34,14.61,14.61,0,0,1-4.1-.83A14.8,14.8,0,0,1,97.64,156a14.59,14.59,0,0,1-3.1-7.36,12.38,12.38,0,0,1,1.5-7.85c2.74-4.72,8.73-7.09,13.75-5a9.07,9.07,0,0,1,5,5.67,8.32,8.32,0,0,1,.25,3.76,7,7,0,0,1-1.59,3.39,6.68,6.68,0,0,1-6.59,2.19,5.25,5.25,0,0,1-2.85-2,5.07,5.07,0,0,1-1-3.19,4.86,4.86,0,0,0,1.27,2.93A4.63,4.63,0,0,0,107,150a5.5,5.5,0,0,0,5.19-2.34,5.61,5.61,0,0,0,.41-5.44,6.29,6.29,0,0,0-6.55-3.86,7.44,7.44,0,0,0-2.6.73,7.76,7.76,0,0,0-3.63,3.69c-1.45,3.09-.37,7.16,2,9.56a10.32,10.32,0,0,0,2,1.56,9.93,9.93,0,0,0,2.31.92,9.13,9.13,0,0,0,2.43.25,12.23,12.23,0,0,0,2.54-.36,11.51,11.51,0,0,0,7.52-6.21,11.16,11.16,0,0,0,1-4.71,15,15,0,0,0-.93-5,14.31,14.31,0,0,0-6.45-7.37,14,14,0,0,0-4.58-1.56l-1.2-.12c-.4,0-.81,0-1.2,0a8.32,8.32,0,0,0-1.26.09,12.58,12.58,0,0,0-1.28.16,19.85,19.85,0,0,0-4.84,1.54,20.19,20.19,0,0,0-4.16,2.82,19.64,19.64,0,0,0-3.18,3.82,17.6,17.6,0,0,0-2,4.48,16.53,16.53,0,0,0-.63,4.81,20.16,20.16,0,0,0,.18,2.54,7.26,7.26,0,0,0,.2,1.28l.25,1.27a22.79,22.79,0,0,0,12.46,15.18,22.24,22.24,0,0,0,9.63,2,30.2,30.2,0,0,0,10.19-2.08,28.45,28.45,0,0,0,17.86-23.35c0-.42.12-.84.15-1.26v-1.28l0-1.27c0-.42-.07-.89-.09-1.33l-.21-2.69-.49-2.64a35.2,35.2,0,0,0-3.64-10,35.87,35.87,0,0,0-6.29-8.54,35.11,35.11,0,0,0-8.42-6.39,34.41,34.41,0,0,0-9.83-3.69l-1.28-.3-1.31-.16c-.87-.09-1.74-.25-2.61-.31-1.77,0-3.47-.17-5.36,0a46.23,46.23,0,0,0-10.86,1.9,47.64,47.64,0,0,0-10.1,4.33,49.43,49.43,0,0,0-8.83,6.54A47.82,47.82,0,0,0,57.45,135.3a46.23,46.23,0,0,0-2.66,10.61,47.05,47.05,0,0,0-.38,5.48l0,1.38.06,1.43c0,1,.06,1.91.16,2.86A60.77,60.77,0,0,0,60.5,179a62.38,62.38,0,0,0,55.06,35.37l1.45,0,1.49,0c1,0,2,0,3-.09,2-.15,4-.27,5.92-.56s3.92-.62,5.87-1,3.88-.85,5.78-1.44,3.79-1.19,5.67-1.82,3.72-1.41,5.52-2.26a75.92,75.92,0,0,0,10.51-5.69,82.82,82.82,0,0,0,30.93-36.09A92.55,92.55,0,0,0,195.75,154a88,88,0,0,0,2.37-11.95c.14-1,.2-2,.3-3l.14-1.52.06-1.53c0-1,.09-2,.11-3.07l0-3.12a114.79,114.79,0,0,0-.87-12.46A107.84,107.84,0,0,0,179.9,70.71c-1.14-1.79-2.47-3.44-3.72-5.16s-2.66-3.31-4-4.94L170,58.24l-1.08-1.18-1.13-1.13-2.26-2.27c-.77-.74-1.57-1.45-2.35-2.18a112.89,112.89,0,0,0-10-8.13,121.28,121.28,0,0,0-10.91-6.93,107.46,107.46,0,0,0-24.05-9.93A118.09,118.09,0,0,0,92.25,22.17Z" transform="translate(-34.4 -21.9)"/>
</svg>
