<svg xmlns="http://www.w3.org/2000/svg">
<symbol id="planet" viewBox="0 0 237.37 174.04">
  <title>saturn symbol</title>
  <g id="planet">
    <path d="M216,122c0,48-40.74,87-91,87s-91-39-91-87c0-33.06,21.56-56.42,25.8-60.69C62.41,58.68,87.88,33.82,125,35,166.44,36.32,216,69.88,216,122Z" transform="translate(-2.37 -34.96)"/>
    <circle cx="122.63" cy="87.04" r="82" fill="#fff"/>
  </g>
  <g id="ring">
    <path d="M33.76,160.79a121.22,121.22,0,0,1-16.52-.84C9.14,158.7,3,152.67,2.43,145.29c-1.34-15.86,20.53-24.89,30-28a5,5,0,1,1,3.15,9.49C17.86,132.63,12,140,12.39,144.45c.23,2.76,2.85,5.07,6.37,5.61,14.79,2.27,74.84-.29,114.25-12.85,40.4-12.87,87.84-46,93.83-55,2.77-4.16,3.69-8.41,2.23-10.35-2.2-2.92-11.52-4.17-30.55,1.89a5,5,0,0,1-3-9.53c21.59-6.88,35.58-6.33,41.57,1.62,4.16,5.52,3.44,13.92-1.89,21.91-8.72,13.08-60,46.49-99.12,59C103.74,157,59.34,160.79,33.76,160.79Z" transform="translate(-2.37 -34.96)"/>
  </g>
</symbol>

<symbol id="star" viewBox="0 0 166.26 147.58">
  <title>three star symbol</title>
  <g id="_Group_" data-name="&lt;Group&gt;">
    <path d="M181.44,85.94c-9.07.17-19.8,13.7-21,25.71C159.33,99.58,148.3,86,139.16,85.94v-.15c9.58,0,21.14-15.09,21.19-27.63h.11c0,12.53,11.42,27.64,21,27.71Z" transform="translate(-36.48 -50.92)"/>
    <g>
      <path d="M139.16,85.79c9.58,0,21.14-15.09,21.19-27.63v-.08" transform="translate(-36.48 -50.92)" fill="none" stroke-miterlimit="10"/>
      <path d="M181.74,85.94h-.3c-9.07.17-19.8,13.7-21,25.71-.07.62-.1,1.23-.11,1.84" transform="translate(-36.48 -50.92)" fill="none" stroke-miterlimit="10"/>
      <path d="M139,85.94h.2c9.14.07,20.17,13.64,21.3,25.71,0,.56.08,1.12.09,1.69" transform="translate(-36.48 -50.92)" fill="none" stroke-miterlimit="10"/>
      <path d="M181.44,85.87c-9.56-.07-21-15.18-21-27.71V58" transform="translate(-36.48 -50.92)" fill="none" stroke-miterlimit="10"/>
    </g>
  </g>
  <g id="_Group_2" data-name="&lt;Group&gt;">
    <path d="M202.37,164.69c-11.19.21-24.62,16.78-26,31.55-1.45-14.8-14.71-31.47-25.87-31.55v-.19c11.75,0,25.94-18.51,26-33.9h.13c0,15.37,14,33.91,25.74,34Z" transform="translate(-36.48 -50.92)"/>
    <g>
      <path d="M150.5,164.5c11.75,0,25.94-18.51,26-33.9v-.1" transform="translate(-36.48 -50.92)" fill="none" stroke-miterlimit="10"/>
      <path d="M202.74,164.69h-.37c-11.19.21-24.62,16.78-26,31.55-.06.69-.1,1.38-.11,2.07" transform="translate(-36.48 -50.92)" fill="none" stroke-miterlimit="10"/>
      <path d="M150.26,164.69h.24c11.16.08,24.42,16.75,25.87,31.55.08.76.12,1.51.13,2.26" transform="translate(-36.48 -50.92)" fill="none" stroke-miterlimit="10"/>
      <path d="M202.37,164.6c-11.73-.09-25.74-18.63-25.74-34v-.2" transform="translate(-36.48 -50.92)" fill="none"  stroke-miterlimit="10"/>
    </g>
  </g>
  <g id="_Group_3" data-name="&lt;Group&gt;">
    <path d="M131.07,125.07v.19c-20.22.45-44.09,36.41-46.72,68.34-2.51-32.1-27.08-68.17-47.43-68.34v-.41c21.33,0,47.09-40.09,47.2-73.43h.24C84.35,84.72,109.78,124.87,131.07,125.07Z" transform="translate(-36.48 -50.92)"/>
    <g>
      <path d="M36.91,124.85c21.33,0,47.09-40.09,47.2-73.43v-.22" transform="translate(-36.48 -50.92)" fill="none" stroke-miterlimit="10"/>
      <path d="M131.74,125.26h-.67c-20.22.45-44.09,36.41-46.72,68.34-.15,1.65-.22,3.27-.24,4.9" transform="translate(-36.48 -50.92)" fill="none" stroke-miterlimit="10"/>
      <path d="M36.48,125.26h.44c20.35.17,44.93,36.24,47.43,68.34.11,1.49.18,3,.2,4.48" transform="translate(-36.48 -50.92)" fill="none" stroke-miterlimit="10"/>
      <path d="M131.07,125.07c-21.29-.19-46.72-40.35-46.72-73.65V51" transform="translate(-36.48 -50.92)" fill="none" stroke-miterlimit="10"/>
    </g>
  </g>
</symbol>


<symbol id="ufo" viewBox="0 0 229.89 188.93">
  <title>ufo</title>
  <g>
    <path d="M60,93.25a62.18,62.18,0,0,1,62.18-62.18c34.34,0,62.32,27.42,62.32,61.77s-1.84,26.73-62.68,26.73C62.81,119.57,60,127.6,60,93.25Z" transform="translate(-7.18 -27.57)" fill="#fff"/>
    <path d="M81,123.88c-9.7,0-15.48-.89-19.3-4.59-4.92-4.77-5.17-13-5.17-26a65.76,65.76,0,0,1,65.68-65.68c36.29,0,65.82,29.28,65.82,65.27,0,13.63-.24,21.58-5.06,26.27-5.33,5.19-14.22,4.94-33.71,4.41-7.34-.2-16.48-.45-27.41-.45s-20.18.29-27.54.51C89.16,123.74,84.76,123.88,81,123.88Zm41.22-89.31A58.75,58.75,0,0,0,63.5,93.25c0,12.49.44,18.49,3,21,3.18,3.08,11.82,2.81,27.51,2.32,7.41-.23,16.62-.52,27.76-.52s20.22.25,27.6.45c16.39.45,25.43.7,28.64-2.43,2.75-2.67,2.95-9.81,2.95-21.26C181,60.71,154.62,34.57,122.18,34.57Z" transform="translate(-7.18 -27.57)"/>
  </g>
  <path d="M121.68,195.35q-3.64,0-7.27-.1A279,279,0,0,1,11.67,172.72l-4.48-1.92,50.71-56.64a3.5,3.5,0,0,1,5.21,4.67L18.93,168.17a271.86,271.86,0,0,0,95.66,20.08A275.84,275.84,0,0,0,225.31,168c-6.5-7.16-13.85-15-21-22.7-8.42-9-17.12-18.34-24.42-26.48a3.5,3.5,0,1,1,5.21-4.67c7.25,8.09,15.92,17.39,24.32,26.38s17.11,18.33,24.4,26.46l3.25,3.63-4.48,1.92A283.37,283.37,0,0,1,121.68,195.35Z" transform="translate(-7.18 -27.57)"/>
  <path d="M69.5,166A13.5,13.5,0,1,1,83,152.5,13.52,13.52,0,0,1,69.5,166Zm0-22a8.5,8.5,0,1,0,8.5,8.5A8.51,8.51,0,0,0,69.5,144Z" transform="translate(-7.18 -27.57)"/>
  <path d="M121,167a14,14,0,1,1,14-14A14,14,0,0,1,121,167Zm0-23a9,9,0,1,0,9,9A9,9,0,0,0,121,144Z" transform="translate(-7.18 -27.57)"/>
  <path d="M172.5,168A14.5,14.5,0,1,1,187,153.5,14.52,14.52,0,0,1,172.5,168Zm0-24a9.5,9.5,0,1,0,9.5,9.5A9.51,9.51,0,0,0,172.5,144Z" transform="translate(-7.18 -27.57)" />
  <path d="M69.19,191.24,54.5,216.5l5.31-28.74a5.07,5.07,0,1,1,10,1.84A5.18,5.18,0,0,1,69.19,191.24Z" transform="translate(-7.18 -27.57)"/>
  <path d="M184.19,187.76l5.31,28.74-14.69-25.26a5.07,5.07,0,1,1,8.77-5.1A5.18,5.18,0,0,1,184.19,187.76Z" transform="translate(-7.18 -27.57)"/>
</symbol>

  
<symbol id="alien" data-name="Layer 1" xmlns="http://www.w3.org/2000/svg" viewBox="0 0 172 199.38">
  <title>alien symbol</title>
  <g>
    <path d="M213.5,95.5c0,49.63-55.71,125.38-83.92,125.38S48.5,149.13,48.5,99.5s52.79-71,81-71S213.5,45.87,213.5,95.5Z" transform="translate(-45 -25)"/>
    <path d="M213.5,95.5c0,49.63-55.71,125.38-83.92,125.38S48.5,149.13,48.5,99.5s52.79-71,81-71S213.5,45.87,213.5,95.5Z" transform="translate(-45 -25)" fill="none" stroke-linecap="round" stroke-miterlimit="10" stroke-width="7"/>
  </g>
  <g>
    <path d="M105.3,104.71c13.32,17,20.48,39.37,10.75,47s-32.86-2.16-46.18-19.14-8.89-27.52,1-35.43C80.58,89.43,92,87.73,105.3,104.71Z" transform="translate(-45 -25)" fill="#ffffff"/>
    <path d="M69.87,132.57c-13.32-17-8.89-27.52,1-35.43,9.67-7.71,21.06-9.41,34.39,7.57s20.48,39.37,10.75,47S83.19,149.55,69.87,132.57Z" transform="translate(-45 -25)" fill="none" stroke-linecap="round" stroke-miterlimit="10"/>
  </g>
  <g>
    <path d="M156.34,104.44c15.15-15.35,26.18-12.29,35.28-3.44,8.87,8.62,12,19.7-3.17,35.07S152,161.35,143.18,152.66,141.18,119.79,156.34,104.44Z" transform="translate(-45 -25)" fill="#ffffff"/>
    <path d="M156.34,104.44c15.15-15.35,26.18-12.29,35.28-3.44,8.87,8.62,12,19.7-3.17,35.07S152,161.35,143.18,152.66,141.18,119.79,156.34,104.44Z" transform="translate(-45 -25)" fill="none" stroke-linecap="round" stroke-miterlimit="10"/>
  </g>
  <ellipse cx="78" cy="152.5" rx="2.5" ry="6" fill="#ffffff" stroke-linecap="round" stroke-miterlimit="10"/>
  <ellipse cx="94" cy="152.5" rx="2.5" ry="6" fill="#ffffff" stroke-linecap="round" stroke-miterlimit="10"/>
</symbol>


<symbol id="star2" xmlns="http://www.w3.org/2000/svg" viewBox="0 0 232.6 222.05">
  <title>star symbol</title>
  <g>
    <polygon points="189.76 220.39 117.44 183.43 46 222.05 58.8 141.85 0 85.84 80.23 73.24 115.33 0 152.11 72.41 232.6 83.16 175.11 140.51 189.76 220.39" fill="#fff"/>
    <path d="M132.67,15.49l34,67,.71,1.41,1.56.21L243.44,94,190.25,147.1l-1.12,1.11.28,1.55L203,223.66l-66.9-34.19-1.4-.72-1.39.75L67.18,225.23,79,151l.25-1.56-1.14-1.09L23.73,96.57,98,84.91l1.56-.24.68-1.42,32.47-67.75m-.08-6.78L97.49,81.95,17.26,94.55l58.81,56-12.8,80.2,71.44-38.62,72.31,37-14.65-79.88,57.5-57.35-80.5-10.75L132.59,8.71Z" transform="translate(-17.26 -8.71)"/>
  </g>
  <g>
    <polygon points="169.84 192.39 119.39 166.85 69.76 193.93 78.46 138.06 37.37 99.23 93.19 90.24 117.42 39.15 143.23 89.46 199.3 96.73 159.42 136.82 169.84 192.39" fill="#fff"/>
    <path d="M134.79,54.65l23,44.9.72,1.4,1.56.2,50,6.49-35.59,35.78-1.11,1.12.29,1.55,9.3,49.6-45-22.79-1.41-.71-1.38.76L90.92,197.1l7.76-49.86.24-1.56-1.15-1.08L61.11,109.94l49.82-8,1.56-.25.68-1.42,21.63-45.59m-.1-6.78L110.45,98.95l-55.82,9,41.09,38.84L87,202.65l49.63-27.08L187.1,201.1l-10.42-55.57,39.87-40.09-56.07-7.27-25.8-50.31Z" transform="translate(-17.26 -8.71)"/>
  </g>
  <g>
    <polygon points="140.62 155.74 118.49 144.48 96.67 156.32 100.54 131.8 82.53 114.71 107.05 110.81 117.74 88.4 129.02 110.52 153.64 113.76 136.09 131.32 140.62 155.74"/>
    <path d="M135.09,103.9l8.52,16.7.72,1.4,1.56.21,18.59,2.45-13.25,13.26L150.12,139l.29,1.55L153.82,159l-16.71-8.5-1.41-.72-1.39.75-16.48,8.95L120.76,141l.25-1.56-1.14-1.09-13.6-12.91,18.52-2.94,1.56-.25.68-1.42,8.07-16.92M135,97.12l-10.69,22.41-24.52,3.9,18,17.09L113.93,165l21.82-11.85,22.13,11.26L153.35,140l17.54-17.57-24.61-3.24L135,97.12Z" transform="translate(-17.26 -8.71)"/>
  </g>
</symbol>


<symbol id="blackhole" xmlns="http://www.w3.org/2000/svg" viewBox="0 0 178.36 211.39">
  <title>black hole spiral symbol</title>
  <path d="M92.25,22.17a112.07,112.07,0,0,1,64.66,15.56A120.17,120.17,0,0,1,168.2,45.5,113.53,113.53,0,0,1,187.77,64.9a114.75,114.75,0,0,1,14.5,23.69,117.51,117.51,0,0,1,8.47,26.66,119.09,119.09,0,0,1,1.76,14l.21,3.52c0,1.18,0,2.38,0,3.57v1.79l-.07,1.79c-.06,1.19-.07,2.39-.18,3.58a102.67,102.67,0,0,1-2.11,14.22,99,99,0,0,1-4.25,13.78,102.08,102.08,0,0,1-6.28,13,99.83,99.83,0,0,1-8.15,12,93.77,93.77,0,0,1-9.87,10.64,95.24,95.24,0,0,1-11.36,9.09,93.66,93.66,0,0,1-12.61,7.34c-2.18,1.1-4.43,2-6.68,3s-4.57,1.73-6.92,2.4-4.7,1.32-7.07,1.92-4.78,1-7.2,1.35-4.85.62-7.28.85c-1.22.11-2.44.13-3.66.2l-1.83.08h-1.87A79.41,79.41,0,0,1,86,227.73a81.28,81.28,0,0,1-43.34-40.06,80.73,80.73,0,0,1-7.94-29c-.14-1.25-.17-2.51-.21-3.77L34.4,153l0-1.94a67,67,0,0,1,.58-7.76,66.15,66.15,0,0,1,3.86-15.08A67.33,67.33,0,0,1,56.23,102.7a69.07,69.07,0,0,1,12.6-9.06,67.13,67.13,0,0,1,14.34-5.91,65.54,65.54,0,0,1,15.28-2.46,72.88,72.88,0,0,1,7.91.16c1.33.13,2.65.36,4,.55.66.1,1.32.2,2,.32l1.95.49a55.14,55.14,0,0,1,27.23,15.85,54.31,54.31,0,0,1,14,28l.58,3.91.2,3.94c0,.66.09,1.3.05,2l-.1,2-.12,2c-.07.68-.19,1.35-.29,2a44.65,44.65,0,0,1-45.3,38.33,37.1,37.1,0,0,1-16-4.19,36.29,36.29,0,0,1-18.83-25.51,36.89,36.89,0,0,1-.52-8.12,29.11,29.11,0,0,1,1.61-8.23,29.81,29.81,0,0,1,3.83-7.41,30.28,30.28,0,0,1,5.71-6,31.46,31.46,0,0,1,7.11-4.14,30.73,30.73,0,0,1,7.94-1.95c.67-.1,1.35-.08,2-.12a16.55,16.55,0,0,1,2.06,0c.7.06,1.41.06,2.11.18s1.4.22,2.09.36a23.43,23.43,0,0,1,7.72,3.27c9.39,6,13.83,18.93,8.14,29.12a18.5,18.5,0,0,1-17.17,9.34,14.61,14.61,0,0,1-4.1-.83A14.8,14.8,0,0,1,97.64,156a14.59,14.59,0,0,1-3.1-7.36,12.38,12.38,0,0,1,1.5-7.85c2.74-4.72,8.73-7.09,13.75-5a9.07,9.07,0,0,1,5,5.67,8.32,8.32,0,0,1,.25,3.76,7,7,0,0,1-1.59,3.39,6.68,6.68,0,0,1-6.59,2.19,5.25,5.25,0,0,1-2.85-2,5.07,5.07,0,0,1-1-3.19,4.86,4.86,0,0,0,1.27,2.93A4.63,4.63,0,0,0,107,150a5.5,5.5,0,0,0,5.19-2.34,5.61,5.61,0,0,0,.41-5.44,6.29,6.29,0,0,0-6.55-3.86,7.44,7.44,0,0,0-2.6.73,7.76,7.76,0,0,0-3.63,3.69c-1.45,3.09-.37,7.16,2,9.56a10.32,10.32,0,0,0,2,1.56,9.93,9.93,0,0,0,2.31.92,9.13,9.13,0,0,0,2.43.25,12.23,12.23,0,0,0,2.54-.36,11.51,11.51,0,0,0,7.52-6.21,11.16,11.16,0,0,0,1-4.71,15,15,0,0,0-.93-5,14.31,14.31,0,0,0-6.45-7.37,14,14,0,0,0-4.58-1.56l-1.2-.12c-.4,0-.81,0-1.2,0a8.32,8.32,0,0,0-1.26.09,12.58,12.58,0,0,0-1.28.16,19.85,19.85,0,0,0-4.84,1.54,20.19,20.19,0,0,0-4.16,2.82,19.64,19.64,0,0,0-3.18,3.82,17.6,17.6,0,0,0-2,4.48,16.53,16.53,0,0,0-.63,4.81,20.16,20.16,0,0,0,.18,2.54,7.26,7.26,0,0,0,.2,1.28l.25,1.27a22.79,22.79,0,0,0,12.46,15.18,22.24,22.24,0,0,0,9.63,2,30.2,30.2,0,0,0,10.19-2.08,28.45,28.45,0,0,0,17.86-23.35c0-.42.12-.84.15-1.26v-1.28l0-1.27c0-.42-.07-.89-.09-1.33l-.21-2.69-.49-2.64a35.2,35.2,0,0,0-3.64-10,35.87,35.87,0,0,0-6.29-8.54,35.11,35.11,0,0,0-8.42-6.39,34.41,34.41,0,0,0-9.83-3.69l-1.28-.3-1.31-.16c-.87-.09-1.74-.25-2.61-.31-1.77,0-3.47-.17-5.36,0a46.23,46.23,0,0,0-10.86,1.9,47.64,47.64,0,0,0-10.1,4.33,49.43,49.43,0,0,0-8.83,6.54A47.82,47.82,0,0,0,57.45,135.3a46.23,46.23,0,0,0-2.66,10.61,47.05,47.05,0,0,0-.38,5.48l0,1.38.06,1.43c0,1,.06,1.91.16,2.86A60.77,60.77,0,0,0,60.5,179a62.38,62.38,0,0,0,55.06,35.37l1.45,0,1.49,0c1,0,2,0,3-.09,2-.15,4-.27,5.92-.56s3.92-.62,5.87-1,3.88-.85,5.78-1.44,3.79-1.19,5.67-1.82,3.72-1.41,5.52-2.26a75.92,75.92,0,0,0,10.51-5.69,82.82,82.82,0,0,0,30.93-36.09A92.55,92.55,0,0,0,195.75,154a88,88,0,0,0,2.37-11.95c.14-1,.2-2,.3-3l.14-1.52.06-1.53c0-1,.09-2,.11-3.07l0-3.12a114.79,114.79,0,0,0-.87-12.46A107.84,107.84,0,0,0,179.9,70.71c-1.14-1.79-2.47-3.44-3.72-5.16s-2.66-3.31-4-4.94L170,58.24l-1.08-1.18-1.13-1.13-2.26-2.27c-.77-.74-1.57-1.45-2.35-2.18a112.89,112.89,0,0,0-10-8.13,121.28,121.28,0,0,0-10.91-6.93,107.46,107.46,0,0,0-24.05-9.93A118.09,118.09,0,0,0,92.25,22.17Z" transform="translate(-34.4 -21.9)"/>
</symbol>


<symbol id="planet2" data-name="Layer 1" xmlns="http://www.w3.org/2000/svg" viewBox="0 0 201 201">
  <title>planet 2 symbol</title>
  <path d="M128.5,229A100.5,100.5,0,1,1,229,128.5,100.61,100.61,0,0,1,128.5,229Zm0-196A95.5,95.5,0,1,0,224,128.5,95.61,95.61,0,0,0,128.5,33Z" transform="translate(-28 -28)"/>
  <rect x="78.5" y="38.5" width="5" height="59.01" transform="translate(-16.36 119.84) rotate(-89.03)"/>
  <rect x="10.5" y="60" width="32" height="5"/>
  <rect x="71.5" y="72" width="61" height="5"/>
  <rect x="152.25" y="16.75" width="5" height="72.51" transform="translate(71.62 179) rotate(-89.21)"/>
  <rect x="163" y="33.49" width="5" height="100.02" transform="translate(50.71 219.3) rotate(-88.85)"/>
  <rect x="168.75" y="32.25" width="5" height="69.51" transform="translate(73.79 209.27) rotate(-89.18)"/>
  <rect x="66" y="77" width="5" height="76.01" transform="translate(-75.39 153.98) rotate(-89.25)"/>
  <rect x="188.25" y="82.75" width="5" height="72.51" transform="translate(41.13 280.09) rotate(-89.21)"/>
  <rect x="114" y="104" width="5" height="72.01" transform="translate(-53.1 226.54) rotate(-89.2)"/>
  <rect x="2.5" y="103" width="26" height="5"/>
  <rect x="8.5" y="131" width="67" height="5"/>
  <rect x="17.5" y="150" width="44" height="5"/>
  <rect x="105" y="157.49" width="5" height="90.02" transform="translate(-125.34 277.47) rotate(-88.73)"/>
  <rect x="152.5" y="110" width="46" height="5"/>
  <rect x="158.5" y="131" width="34" height="5"/>
  <rect x="105.5" y="150" width="76" height="5"/>
</symbol>

</svg>