<svg xmlns="http://www.w3.org/2000/svg" viewBox="0 0 237.37 174.04">
  <title>Planet</title>
  <g id="planet">
    <path d="M216,122c0,48-40.74,87-91,87s-91-39-91-87c0-33.06,21.56-56.42,25.8-60.69C62.41,58.68,87.88,33.82,125,35,166.44,36.32,216,69.88,216,122Z" transform="translate(-2.37 -34.96)"/>
    <circle cx="122.63" cy="87.04" r="82" fill="#fff"/>
  </g>
  <g id="ring">
    <path d="M33.76,160.79a121.22,121.22,0,0,1-16.52-.84C9.14,158.7,3,152.67,2.43,145.29c-1.34-15.86,20.53-24.89,30-28a5,5,0,1,1,3.15,9.49C17.86,132.63,12,140,12.39,144.45c.23,2.76,2.85,5.07,6.37,5.61,14.79,2.27,74.84-.29,114.25-12.85,40.4-12.87,87.84-46,93.83-55,2.77-4.16,3.69-8.41,2.23-10.35-2.2-2.92-11.52-4.17-30.55,1.89a5,5,0,0,1-3-9.53c21.59-6.88,35.58-6.33,41.57,1.62,4.16,5.52,3.44,13.92-1.89,21.91-8.72,13.08-60,46.49-99.12,59C103.74,157,59.34,160.79,33.76,160.79Z" transform="translate(-2.37 -34.96)" fill="#231f20"/>
  </g>
</svg>
