<svg id="star2" xmlns="http://www.w3.org/2000/svg" viewBox="0 0 232.6 222.05">
  <title>star2</title>
  <g>
    <polygon points="189.76 220.39 117.44 183.43 46 222.05 58.8 141.85 0 85.84 80.23 73.24 115.33 0 152.11 72.41 232.6 83.16 175.11 140.51 189.76 220.39" fill="#fff"/>
    <path d="M132.67,15.49l34,67,.71,1.41,1.56.21L243.44,94,190.25,147.1l-1.12,1.11.28,1.55L203,223.66l-66.9-34.19-1.4-.72-1.39.75L67.18,225.23,79,151l.25-1.56-1.14-1.09L23.73,96.57,98,84.91l1.56-.24.68-1.42,32.47-67.75m-.08-6.78L97.49,81.95,17.26,94.55l58.81,56-12.8,80.2,71.44-38.62,72.31,37-14.65-79.88,57.5-57.35-80.5-10.75L132.59,8.71Z" transform="translate(-17.26 -8.71)"/>
  </g>
  <g>
    <polygon points="169.84 192.39 119.39 166.85 69.76 193.93 78.46 138.06 37.37 99.23 93.19 90.24 117.42 39.15 143.23 89.46 199.3 96.73 159.42 136.82 169.84 192.39" fill="#fff"/>
    <path d="M134.79,54.65l23,44.9.72,1.4,1.56.2,50,6.49-35.59,35.78-1.11,1.12.29,1.55,9.3,49.6-45-22.79-1.41-.71-1.38.76L90.92,197.1l7.76-49.86.24-1.56-1.15-1.08L61.11,109.94l49.82-8,1.56-.25.68-1.42,21.63-45.59m-.1-6.78L110.45,98.95l-55.82,9,41.09,38.84L87,202.65l49.63-27.08L187.1,201.1l-10.42-55.57,39.87-40.09-56.07-7.27-25.8-50.31Z" transform="translate(-17.26 -8.71)"/>
  </g>
  <g>
    <polygon points="140.62 155.74 118.49 144.48 96.67 156.32 100.54 131.8 82.53 114.71 107.05 110.81 117.74 88.4 129.02 110.52 153.64 113.76 136.09 131.32 140.62 155.74"/>
    <path d="M135.09,103.9l8.52,16.7.72,1.4,1.56.21,18.59,2.45-13.25,13.26L150.12,139l.29,1.55L153.82,159l-16.71-8.5-1.41-.72-1.39.75-16.48,8.95L120.76,141l.25-1.56-1.14-1.09-13.6-12.91,18.52-2.94,1.56-.25.68-1.42,8.07-16.92M135,97.12l-10.69,22.41-24.52,3.9,18,17.09L113.93,165l21.82-11.85,22.13,11.26L153.35,140l17.54-17.57-24.61-3.24L135,97.12Z" transform="translate(-17.26 -8.71)"/>
  </g>
</svg>
