<svg id="Layer_1" data-name="Layer 1" xmlns="http://www.w3.org/2000/svg" viewBox="0 0 166.26 147.58">
  <title>star</title>
  <g id="_Group_" data-name="&lt;Group&gt;">
    <path d="M181.44,85.94c-9.07.17-19.8,13.7-21,25.71C159.33,99.58,148.3,86,139.16,85.94v-.15c9.58,0,21.14-15.09,21.19-27.63h.11c0,12.53,11.42,27.64,21,27.71Z" transform="translate(-36.48 -50.92)"/>
    <g>
      <path d="M139.16,85.79c9.58,0,21.14-15.09,21.19-27.63v-.08" transform="translate(-36.48 -50.92)" fill="none" stroke="#000" stroke-miterlimit="10"/>
      <path d="M181.74,85.94h-.3c-9.07.17-19.8,13.7-21,25.71-.07.62-.1,1.23-.11,1.84" transform="translate(-36.48 -50.92)" fill="none" stroke="#000" stroke-miterlimit="10"/>
      <path d="M139,85.94h.2c9.14.07,20.17,13.64,21.3,25.71,0,.56.08,1.12.09,1.69" transform="translate(-36.48 -50.92)" fill="none" stroke="#000" stroke-miterlimit="10"/>
      <path d="M181.44,85.87c-9.56-.07-21-15.18-21-27.71V58" transform="translate(-36.48 -50.92)" fill="none" stroke="#000" stroke-miterlimit="10"/>
    </g>
  </g>
  <g id="_Group_2" data-name="&lt;Group&gt;">
    <path d="M202.37,164.69c-11.19.21-24.62,16.78-26,31.55-1.45-14.8-14.71-31.47-25.87-31.55v-.19c11.75,0,25.94-18.51,26-33.9h.13c0,15.37,14,33.91,25.74,34Z" transform="translate(-36.48 -50.92)"/>
    <g>
      <path d="M150.5,164.5c11.75,0,25.94-18.51,26-33.9v-.1" transform="translate(-36.48 -50.92)" fill="none" stroke="#000" stroke-miterlimit="10"/>
      <path d="M202.74,164.69h-.37c-11.19.21-24.62,16.78-26,31.55-.06.69-.1,1.38-.11,2.07" transform="translate(-36.48 -50.92)" fill="none" stroke="#000" stroke-miterlimit="10"/>
      <path d="M150.26,164.69h.24c11.16.08,24.42,16.75,25.87,31.55.08.76.12,1.51.13,2.26" transform="translate(-36.48 -50.92)" fill="none" stroke="#000" stroke-miterlimit="10"/>
      <path d="M202.37,164.6c-11.73-.09-25.74-18.63-25.74-34v-.2" transform="translate(-36.48 -50.92)" fill="none" stroke="#000" stroke-miterlimit="10"/>
    </g>
  </g>
  <g id="_Group_3" data-name="&lt;Group&gt;">
    <path d="M131.07,125.07v.19c-20.22.45-44.09,36.41-46.72,68.34-2.51-32.1-27.08-68.17-47.43-68.34v-.41c21.33,0,47.09-40.09,47.2-73.43h.24C84.35,84.72,109.78,124.87,131.07,125.07Z" transform="translate(-36.48 -50.92)"/>
    <g>
      <path d="M36.91,124.85c21.33,0,47.09-40.09,47.2-73.43v-.22" transform="translate(-36.48 -50.92)" fill="none" stroke="#000" stroke-miterlimit="10"/>
      <path d="M131.74,125.26h-.67c-20.22.45-44.09,36.41-46.72,68.34-.15,1.65-.22,3.27-.24,4.9" transform="translate(-36.48 -50.92)" fill="none" stroke="#000" stroke-miterlimit="10"/>
      <path d="M36.48,125.26h.44c20.35.17,44.93,36.24,47.43,68.34.11,1.49.18,3,.2,4.48" transform="translate(-36.48 -50.92)" fill="none" stroke="#000" stroke-miterlimit="10"/>
      <path d="M131.07,125.07c-21.29-.19-46.72-40.35-46.72-73.65V51" transform="translate(-36.48 -50.92)" fill="none" stroke="#000" stroke-miterlimit="10"/>
    </g>
  </g>
</svg>
