<svg id="ufo" xmlns="http://www.w3.org/2000/svg" viewBox="0 0 229.89 188.93">
  <title>ufo</title>
  <g>
    <path d="M60,93.25a62.18,62.18,0,0,1,62.18-62.18c34.34,0,62.32,27.42,62.32,61.77s-1.84,26.73-62.68,26.73C62.81,119.57,60,127.6,60,93.25Z" transform="translate(-7.18 -27.57)" fill="#fff"/>
    <path d="M81,123.88c-9.7,0-15.48-.89-19.3-4.59-4.92-4.77-5.17-13-5.17-26a65.76,65.76,0,0,1,65.68-65.68c36.29,0,65.82,29.28,65.82,65.27,0,13.63-.24,21.58-5.06,26.27-5.33,5.19-14.22,4.94-33.71,4.41-7.34-.2-16.48-.45-27.41-.45s-20.18.29-27.54.51C89.16,123.74,84.76,123.88,81,123.88Zm41.22-89.31A58.75,58.75,0,0,0,63.5,93.25c0,12.49.44,18.49,3,21,3.18,3.08,11.82,2.81,27.51,2.32,7.41-.23,16.62-.52,27.76-.52s20.22.25,27.6.45c16.39.45,25.43.7,28.64-2.43,2.75-2.67,2.95-9.81,2.95-21.26C181,60.71,154.62,34.57,122.18,34.57Z" transform="translate(-7.18 -27.57)" fill="#231f20"/>
  </g>
  <path d="M121.68,195.35q-3.64,0-7.27-.1A279,279,0,0,1,11.67,172.72l-4.48-1.92,50.71-56.64a3.5,3.5,0,0,1,5.21,4.67L18.93,168.17a271.86,271.86,0,0,0,95.66,20.08A275.84,275.84,0,0,0,225.31,168c-6.5-7.16-13.85-15-21-22.7-8.42-9-17.12-18.34-24.42-26.48a3.5,3.5,0,1,1,5.21-4.67c7.25,8.09,15.92,17.39,24.32,26.38s17.11,18.33,24.4,26.46l3.25,3.63-4.48,1.92A283.37,283.37,0,0,1,121.68,195.35Z" transform="translate(-7.18 -27.57)" fill="#231f20"/>
  <path d="M69.5,166A13.5,13.5,0,1,1,83,152.5,13.52,13.52,0,0,1,69.5,166Zm0-22a8.5,8.5,0,1,0,8.5,8.5A8.51,8.51,0,0,0,69.5,144Z" transform="translate(-7.18 -27.57)" fill="#231f20"/>
  <path d="M121,167a14,14,0,1,1,14-14A14,14,0,0,1,121,167Zm0-23a9,9,0,1,0,9,9A9,9,0,0,0,121,144Z" transform="translate(-7.18 -27.57)" fill="#231f20"/>
  <path d="M172.5,168A14.5,14.5,0,1,1,187,153.5,14.52,14.52,0,0,1,172.5,168Zm0-24a9.5,9.5,0,1,0,9.5,9.5A9.51,9.51,0,0,0,172.5,144Z" transform="translate(-7.18 -27.57)" fill="#231f20"/>
  <path d="M69.19,191.24,54.5,216.5l5.31-28.74a5.07,5.07,0,1,1,10,1.84A5.18,5.18,0,0,1,69.19,191.24Z" transform="translate(-7.18 -27.57)" fill="#231f20"/>
  <path d="M184.19,187.76l5.31,28.74-14.69-25.26a5.07,5.07,0,1,1,8.77-5.1A5.18,5.18,0,0,1,184.19,187.76Z" transform="translate(-7.18 -27.57)" fill="#231f20"/>
</svg>
